<?xml version="1.0" encoding="UTF-8" standalone="no"?>
<!-- Created with Inkscape (http://www.inkscape.org/) -->

<svg
   xmlns:dc="http://purl.org/dc/elements/1.1/"
   xmlns:cc="http://creativecommons.org/ns#"
   xmlns:rdf="http://www.w3.org/1999/02/22-rdf-syntax-ns#"
   xmlns:svg="http://www.w3.org/2000/svg"
   xmlns="http://www.w3.org/2000/svg"
   xmlns:xlink="http://www.w3.org/1999/xlink"
   xmlns:sodipodi="http://sodipodi.sourceforge.net/DTD/sodipodi-0.dtd"
   xmlns:inkscape="http://www.inkscape.org/namespaces/inkscape"
   id="svg3039"
   version="1.1"
   inkscape:version="0.48.0 r9654"
   width="334"
   height="279"
   sodipodi:docname="socialmedia.svg">
  <metadata
     id="metadata3045">
    <rdf:RDF>
      <cc:Work
         rdf:about="">
        <dc:format>image/svg+xml</dc:format>
        <dc:type
           rdf:resource="http://purl.org/dc/dcmitype/StillImage" />
        <dc:title></dc:title>
      </cc:Work>
    </rdf:RDF>
  </metadata>
  <defs
     id="defs3043" />
  <sodipodi:namedview
     pagecolor="#ffffff"
     bordercolor="#666666"
     borderopacity="1"
     objecttolerance="10"
     gridtolerance="10"
     guidetolerance="10"
     inkscape:pageopacity="0"
     inkscape:pageshadow="2"
     inkscape:window-width="1680"
     inkscape:window-height="996"
     id="namedview3041"
     showgrid="false"
     inkscape:zoom="2.605397"
     inkscape:cx="237.81454"
     inkscape:cy="139.61867"
     inkscape:window-x="0"
     inkscape:window-y="24"
     inkscape:window-maximized="1"
     inkscape:current-layer="svg3039" />
  <image
     width="334"
     height="279"
     xlink:href="file:///media/gandalf/kevingustavson/christmas/2010/images/socialmedia.jpg"
     id="image3047"
     x="0"
     y="0"
     inkscape:export-filename="/media/gandalf/kevingustavson/christmas/2010/images/socialmedia.png"
     inkscape:export-xdpi="90"
     inkscape:export-ydpi="90" />
  <rect
     style="fill:#ffffff;fill-opacity:1;fill-rule:evenodd;stroke:none"
     id="rect3116"
     width="78.199341"
     height="19.475082"
     x="170.41585"
     y="109.45181" />
  <image
     y="111.54237"
     x="172.77063"
     id="image3111"
     xlink:href="file:///media/gandalf/kevingustavson/christmas/2010/images/Identica_Icon.png"
     height="15.253078"
     width="15.253078" />
  <g
     style="font-size:9px;font-style:normal;font-variant:normal;font-weight:bold;font-stretch:normal;line-height:125%;letter-spacing:0px;word-spacing:0px;fill:#000000;fill-opacity:0.67372885;stroke:none;font-family:KacstOne;-inkscape-font-specification:KacstOne Bold"
     id="text3886">
    <path
       d="m 201.48244,115.23514 1.69189,0 0,6.56103 -1.69189,0 0,-6.56103"
       style=""
       id="path3962" />
    <path
       d="m 208.11818,117.595 0,-2.63672 1.58203,0 0,6.83789 -1.58203,0 0,-0.71191 c -0.2168,0.29004 -0.45557,0.50244 -0.71631,0.63721 -0.26074,0.13476 -0.5625,0.20214 -0.90527,0.20214 -0.60645,0 -1.1045,-0.24023 -1.49414,-0.7207 -0.38965,-0.4834 -0.58448,-1.10449 -0.58448,-1.86328 0,-0.75879 0.19483,-1.37841 0.58448,-1.85889 0.38964,-0.48339 0.88769,-0.72509 1.49414,-0.72509 0.33984,0 0.64013,0.0688 0.90088,0.20654 0.26366,0.13477 0.5039,0.34571 0.7207,0.63281 m -1.03711,3.18604 c 0.33691,0 0.59326,-0.12305 0.76904,-0.36914 0.17871,-0.2461 0.26807,-0.60352 0.26807,-1.07227 0,-0.46875 -0.0894,-0.82617 -0.26807,-1.07227 -0.17578,-0.24609 -0.43213,-0.36913 -0.76904,-0.36914 -0.33399,1e-5 -0.59033,0.12305 -0.76904,0.36914 -0.17579,0.2461 -0.26368,0.60352 -0.26367,1.07227 -1e-5,0.46875 0.0879,0.82617 0.26367,1.07227 0.17871,0.24609 0.43505,0.36914 0.76904,0.36914"
       style=""
       id="path3964" />
    <path
       d="m 216.1338,119.32205 0,0.44824 -3.67822,0 c 0.0381,0.36915 0.17139,0.646 0.3999,0.83057 0.22852,0.18457 0.54785,0.27686 0.95801,0.27686 0.33105,0 0.66943,-0.0483 1.01514,-0.14502 0.34863,-0.0996 0.70605,-0.24903 1.07226,-0.44825 l 0,1.21289 c -0.37207,0.14063 -0.74414,0.2461 -1.11621,0.31641 -0.37207,0.0732 -0.74414,0.10986 -1.11621,0.10986 -0.89063,0 -1.5835,-0.22558 -2.07861,-0.67675 -0.49219,-0.4541 -0.73828,-1.08985 -0.73828,-1.90723 0,-0.80273 0.2417,-1.43408 0.7251,-1.89404 0.48632,-0.45996 1.15429,-0.68994 2.0039,-0.68994 0.77344,0 1.3916,0.23291 1.85449,0.69873 0.46582,0.46582 0.69873,1.08838 0.69873,1.86767 m -1.61718,-0.52295 c -1e-5,-0.29882 -0.0879,-0.53906 -0.26368,-0.7207 -0.17285,-0.18457 -0.3999,-0.27685 -0.68115,-0.27686 -0.30469,1e-5 -0.55225,0.0864 -0.74267,0.25928 -0.19044,0.16993 -0.30909,0.41602 -0.35596,0.73828 l 2.04346,0"
       style=""
       id="path3966" />
    <path
       d="m 222.26857,118.7991 0,2.99707 -1.58203,0 0,-0.48779 0,-1.80615 c -1e-5,-0.4248 -0.0103,-0.71777 -0.0308,-0.87891 -0.0176,-0.16113 -0.0498,-0.27978 -0.0967,-0.35596 -0.0615,-0.10253 -0.14503,-0.18163 -0.25049,-0.2373 -0.10547,-0.0586 -0.22559,-0.0879 -0.36035,-0.0879 -0.32813,0 -0.58594,0.12744 -0.77344,0.38232 -0.1875,0.25196 -0.28125,0.60206 -0.28125,1.0503 l 0,2.42138 -1.57324,0 0,-4.92187 1.57324,0 0,0.7207 c 0.2373,-0.2871 0.48925,-0.49804 0.75586,-0.63281 0.2666,-0.13769 0.56103,-0.20654 0.8833,-0.20654 0.56835,0 0.99902,0.17432 1.29199,0.52294 0.2959,0.34864 0.44384,0.85548 0.44385,1.52051"
       style=""
       id="path3968" />
    <path
       d="m 225.45461,115.47684 0,1.39746 1.62158,0 0,1.125 -1.62158,0 0,2.0874 c -1e-5,0.22852 0.0454,0.38379 0.13623,0.46582 0.0908,0.0791 0.27099,0.11865 0.54052,0.11865 l 0.8086,0 0,1.125 -1.34912,0 c -0.6211,0 -1.06202,-0.1289 -1.32276,-0.38672 -0.25781,-0.26074 -0.38672,-0.70165 -0.38672,-1.32275 l 0,-2.0874 -0.78222,0 0,-1.125 0.78222,0 0,-1.39746 1.57325,0"
       style=""
       id="path3970" />
    <path
       d="m 228.04298,116.8743 1.57325,0 0,4.92187 -1.57325,0 0,-4.92187 m 0,-1.91602 1.57325,0 0,1.28321 -1.57325,0 0,-1.28321"
       style=""
       id="path3972" />
    <path
       d="m 235.11378,117.02811 0,1.2832 c -0.21387,-0.14648 -0.4292,-0.25488 -0.64599,-0.3252 -0.21387,-0.0703 -0.43653,-0.10546 -0.66797,-0.10546 -0.43946,0 -0.78223,0.12891 -1.02832,0.38671 -0.24317,0.25489 -0.36475,0.61231 -0.36475,1.07227 0,0.45996 0.12158,0.81885 0.36475,1.07666 0.24609,0.25488 0.58886,0.38233 1.02832,0.38232 0.24609,1e-5 0.479,-0.0366 0.69873,-0.10986 0.22265,-0.0732 0.42773,-0.18164 0.61523,-0.32519 l 0,1.28759 c -0.24609,0.0908 -0.49658,0.15821 -0.75146,0.20215 -0.25196,0.0469 -0.50537,0.0703 -0.76025,0.0703 -0.8877,0 -1.58204,-0.22705 -2.08301,-0.68115 -0.50098,-0.45703 -0.75147,-1.0913 -0.75147,-1.90283 0,-0.81152 0.25049,-1.44433 0.75147,-1.89844 0.50097,-0.45702 1.19531,-0.68554 2.08301,-0.68554 0.25781,0 0.51122,0.0234 0.76025,0.0703 0.25195,0.044 0.50244,0.11133 0.75146,0.20215"
       style=""
       id="path3974" />
    <path
       d="m 238.68654,119.58133 c -0.32813,0 -0.57569,0.0557 -0.74268,0.16699 -0.16406,0.11133 -0.24609,0.27539 -0.24609,0.49219 0,0.19922 0.0659,0.35596 0.19775,0.47021 0.13477,0.11133 0.3208,0.167 0.55811,0.167 0.29589,0 0.54492,-0.10547 0.74707,-0.31641 0.20214,-0.21387 0.30322,-0.48047 0.30322,-0.7998 l 0,-0.18018 -0.81738,0 m 2.40381,-0.59326 0,2.8081 -1.58643,0 0,-0.72949 c -0.21094,0.29883 -0.44824,0.51709 -0.71191,0.65479 -0.26368,0.13476 -0.58448,0.20214 -0.9624,0.20214 -0.50977,0 -0.92432,-0.14794 -1.24366,-0.44384 -0.3164,-0.29883 -0.47461,-0.68555 -0.47461,-1.16016 0,-0.57715 0.19776,-1.00049 0.59327,-1.27002 0.39843,-0.26953 1.02245,-0.40429 1.87207,-0.4043 l 0.92724,0 0,-0.12304 c 0,-0.24902 -0.0982,-0.43066 -0.29443,-0.54492 -0.19629,-0.11719 -0.50245,-0.17578 -0.91846,-0.17579 -0.33692,1e-5 -0.65039,0.0337 -0.94043,0.10108 -0.29004,0.0674 -0.55957,0.16846 -0.80859,0.30322 l 0,-1.19971 c 0.33691,-0.082 0.67529,-0.14355 1.01513,-0.18457 0.33985,-0.0439 0.67969,-0.0659 1.01954,-0.0659 0.88769,0 1.52782,0.17578 1.92041,0.52734 0.3955,0.34864 0.59325,0.917 0.59326,1.70508"
       style=""
       id="path3976" />
  </g>
  <rect
     style="fill:#ffffff;fill-opacity:1;stroke:none"
     id="rect3902"
     width="53.734612"
     height="14.585109"
     x="89.045929"
     y="111.27125" />
  <rect
     y="111.27125"
     x="89.045929"
     height="14.585109"
     width="53.734612"
     id="rect3904"
     style="fill:#ffffff;fill-opacity:1;stroke:none" />
  <rect
     style="fill:#ffffff;fill-opacity:1;stroke:none"
     id="rect3908"
     width="55.653706"
     height="16.120384"
     x="88.27829"
     y="136.21945" />
  <rect
     style="fill:#ffffff;fill-opacity:1;stroke:none"
     id="rect3910"
     width="47.209694"
     height="16.120384"
     x="87.126839"
     y="159.6324" />
  <g
     style="font-size:9px;font-style:normal;font-variant:normal;font-weight:bold;font-stretch:normal;line-height:125%;letter-spacing:0px;word-spacing:0px;fill:#000000;fill-opacity:0.6745098;stroke:none;font-family:KacstOne;-inkscape-font-specification:KacstOne Bold"
     id="text3890">
    <path
       d="m 91.02356,142.04419 1.691894,0 0,5.28223 2.970703,0 0,1.2788 -4.662597,0 0,-6.56103"
       style=""
       id="path3930" />
    <path
       d="m 96.683716,143.68335 1.573242,0 0,4.92187 -1.573242,0 0,-4.92187 m 0,-1.91602 1.573242,0 0,1.28321 -1.573242,0 0,-1.28321"
       style=""
       id="path3932" />
    <path
       d="m 104.72571,145.60815 0,2.99707 -1.58203,0 0,-0.48779 0,-1.80615 c -1e-5,-0.4248 -0.0103,-0.71777 -0.0308,-0.87891 -0.0176,-0.16113 -0.0498,-0.27978 -0.0967,-0.35595 -0.0615,-0.10254 -0.14503,-0.18164 -0.25049,-0.23731 -0.10548,-0.0586 -0.22559,-0.0879 -0.36035,-0.0879 -0.32813,0 -0.58594,0.12745 -0.77344,0.38232 -0.1875,0.25196 -0.28125,0.60206 -0.28125,1.0503 l 0,2.42138 -1.573244,0 0,-4.92187 1.573244,0 0,0.7207 c 0.2373,-0.2871 0.48925,-0.49804 0.75586,-0.63281 0.2666,-0.13769 0.56103,-0.20654 0.8833,-0.20654 0.56835,0 0.99902,0.17432 1.29199,0.52295 0.29589,0.34863 0.44384,0.85547 0.44385,1.5205"
       style=""
       id="path3934" />
    <path
       d="m 106.19348,141.76733 1.57324,0 0,3.72217 1.81055,-1.80615 1.82813,0 -2.40381,2.25879 2.59277,2.66308 -1.90723,0 -1.92041,-2.05224 0,2.05224 -1.57324,0 0,-6.83789"
       style=""
       id="path3936" />
    <path
       d="m 116.85461,146.1311 0,0.44825 -3.67822,0 c 0.0381,0.36914 0.17139,0.64599 0.3999,0.83056 0.22852,0.18457 0.54785,0.27686 0.95801,0.27686 0.33105,0 0.66943,-0.0483 1.01514,-0.14502 0.34863,-0.0996 0.70605,-0.24902 1.07226,-0.44824 l 0,1.21289 c -0.37207,0.14062 -0.74414,0.24609 -1.11621,0.3164 -0.37207,0.0732 -0.74414,0.10987 -1.11621,0.10987 -0.89063,0 -1.5835,-0.22559 -2.07861,-0.67676 -0.49219,-0.4541 -0.73828,-1.08984 -0.73828,-1.90723 0,-0.80273 0.2417,-1.43408 0.7251,-1.89404 0.48632,-0.45996 1.15429,-0.68994 2.0039,-0.68994 0.77344,0 1.3916,0.23291 1.85449,0.69873 0.46582,0.46582 0.69873,1.08838 0.69873,1.86767 m -1.61718,-0.52295 c -1e-5,-0.29882 -0.0879,-0.53905 -0.26368,-0.7207 -0.17285,-0.18457 -0.3999,-0.27685 -0.68115,-0.27685 -0.30469,0 -0.55225,0.0864 -0.74267,0.25927 -0.19044,0.16993 -0.30909,0.41602 -0.35596,0.73828 l 2.04346,0"
       style=""
       id="path3938" />
    <path
       d="m 121.38977,144.40405 0,-2.63672 1.58203,0 0,6.83789 -1.58203,0 0,-0.71191 c -0.2168,0.29004 -0.45557,0.50244 -0.71631,0.63721 -0.26074,0.13476 -0.5625,0.20215 -0.90527,0.20215 -0.60645,0 -1.1045,-0.24024 -1.49414,-0.72071 -0.38965,-0.48339 -0.58448,-1.10449 -0.58447,-1.86328 -1e-5,-0.75878 0.19482,-1.37841 0.58447,-1.85889 0.38964,-0.48339 0.88769,-0.72509 1.49414,-0.72509 0.33984,0 0.64013,0.0689 0.90088,0.20654 0.26367,0.13477 0.5039,0.34571 0.7207,0.63281 m -1.03711,3.18604 c 0.33691,0 0.59326,-0.12305 0.76904,-0.36914 0.17871,-0.24609 0.26807,-0.60352 0.26807,-1.07227 0,-0.46875 -0.0894,-0.82617 -0.26807,-1.07226 -0.17578,-0.24609 -0.43213,-0.36914 -0.76904,-0.36914 -0.33399,0 -0.59033,0.12305 -0.76904,0.36914 -0.17579,0.24609 -0.26368,0.60351 -0.26367,1.07226 -1e-5,0.46875 0.0879,0.82618 0.26367,1.07227 0.17871,0.24609 0.43505,0.36914 0.76904,0.36914"
       style=""
       id="path3940" />
    <path
       d="m 124.56262,142.04419 1.6919,0 0,6.56103 -1.6919,0 0,-6.56103"
       style=""
       id="path3942" />
    <path
       d="m 132.79797,145.60815 0,2.99707 -1.58203,0 0,-0.48779 0,-1.80615 c 0,-0.4248 -0.0103,-0.71777 -0.0308,-0.87891 -0.0176,-0.16113 -0.0498,-0.27978 -0.0967,-0.35595 -0.0615,-0.10254 -0.14502,-0.18164 -0.25049,-0.23731 -0.10547,-0.0586 -0.22559,-0.0879 -0.36035,-0.0879 -0.32813,0 -0.58594,0.12745 -0.77344,0.38232 -0.1875,0.25196 -0.28125,0.60206 -0.28125,1.0503 l 0,2.42138 -1.57324,0 0,-4.92187 1.57324,0 0,0.7207 c 0.23731,-0.2871 0.48926,-0.49804 0.75586,-0.63281 0.2666,-0.13769 0.56103,-0.20654 0.8833,-0.20654 0.56836,0 0.99902,0.17432 1.292,0.52295 0.29589,0.34863 0.44384,0.85547 0.44384,1.5205"
       style=""
       id="path3944" />
  </g>
  <g
     style="font-size:9px;font-style:normal;font-variant:normal;font-weight:bold;font-stretch:normal;line-height:125%;letter-spacing:0px;word-spacing:0px;fill:#000000;fill-opacity:0.67058824;stroke:none;font-family:KacstOne;-inkscape-font-specification:KacstOne Bold"
     id="text3894">
    <path
       d="m 90.625153,168.00081 6.046875,0 0,1.27881 -2.175293,0 0,5.28222 -1.691895,0 0,-5.28222 -2.179687,0 0,-1.27881"
       style=""
       id="path3947" />
    <path
       d="m 96.048004,169.63997 1.529297,0 0.826172,3.39258 0.830566,-3.39258 1.313961,0 0.82618,3.35742 0.83056,-3.35742 1.5293,0 -1.29639,4.92187 -1.71826,0 -0.830566,-3.38379 -0.826171,3.38379 -1.718262,0 -1.296387,-4.92187"
       style=""
       id="path3949" />
    <path
       d="m 104.80191,169.63997 1.57324,0 0,4.92187 -1.57324,0 0,-4.92187 m 0,-1.91602 1.57324,0 0,1.28321 -1.57324,0 0,-1.28321"
       style=""
       id="path3951" />
    <path
       d="m 109.61392,168.24251 0,1.39746 1.62158,0 0,1.125 -1.62158,0 0,2.0874 c 0,0.22852 0.0454,0.38379 0.13623,0.46582 0.0908,0.0791 0.271,0.11865 0.54053,0.11865 l 0.80859,0 0,1.125 -1.34912,0 c -0.62109,0 -1.06201,-0.1289 -1.32275,-0.38671 -0.25781,-0.26075 -0.38672,-0.70166 -0.38672,-1.32276 l 0,-2.0874 -0.78223,0 0,-1.125 0.78223,0 0,-1.39746 1.57324,0"
       style=""
       id="path3953" />
    <path
       d="m 113.92056,168.24251 0,1.39746 1.62158,0 0,1.125 -1.62158,0 0,2.0874 c 0,0.22852 0.0454,0.38379 0.13623,0.46582 0.0908,0.0791 0.271,0.11865 0.54053,0.11865 l 0.80859,0 0,1.125 -1.34912,0 c -0.62109,0 -1.06201,-0.1289 -1.32275,-0.38671 -0.25781,-0.26075 -0.38672,-0.70166 -0.38672,-1.32276 l 0,-2.0874 -0.78223,0 0,-1.125 0.78223,0 0,-1.39746 1.57324,0"
       style=""
       id="path3955" />
    <path
       d="m 121.42203,172.08772 0,0.44824 -3.67823,0 c 0.0381,0.36915 0.17139,0.646 0.39991,0.83057 0.22851,0.18457 0.54785,0.27686 0.95801,0.27686 0.33105,0 0.66942,-0.0483 1.01513,-0.14502 0.34863,-0.0996 0.70605,-0.24902 1.07227,-0.44824 l 0,1.21289 c -0.37208,0.14062 -0.74415,0.24609 -1.11621,0.3164 -0.37208,0.0732 -0.74415,0.10987 -1.11621,0.10987 -0.89063,0 -1.5835,-0.22559 -2.07862,-0.67676 -0.49219,-0.4541 -0.73828,-1.08984 -0.73828,-1.90723 0,-0.80273 0.2417,-1.43408 0.7251,-1.89404 0.48633,-0.45996 1.15429,-0.68994 2.0039,-0.68994 0.77344,0 1.3916,0.23291 1.8545,0.69873 0.46581,0.46582 0.69872,1.08838 0.69873,1.86767 m -1.61719,-0.52295 c 0,-0.29882 -0.0879,-0.53906 -0.26367,-0.7207 -0.17286,-0.18457 -0.39991,-0.27685 -0.68115,-0.27686 -0.30469,1e-5 -0.55225,0.0864 -0.74268,0.25928 -0.19043,0.16993 -0.30908,0.41602 -0.35596,0.73828 l 2.04346,0"
       style=""
       id="path3957" />
    <path
       d="m 126.2648,170.9803 c -0.1377,-0.0644 -0.27539,-0.11132 -0.41308,-0.14062 -0.13477,-0.0322 -0.271,-0.0483 -0.4087,-0.0483 -0.4043,0 -0.71631,0.13037 -0.93603,0.39111 -0.2168,0.25781 -0.3252,0.62842 -0.3252,1.11182 l 0,2.26757 -1.57324,0 0,-4.92187 1.57324,0 0,0.80859 c 0.20215,-0.32226 0.43359,-0.55663 0.69434,-0.70312 0.26367,-0.14941 0.57861,-0.22412 0.94482,-0.22412 0.0527,0 0.10986,0.003 0.17139,0.009 0.0615,0.003 0.15087,0.0117 0.26807,0.0264 l 0.004,1.42383"
       style=""
       id="path3959" />
  </g>
  <g
     style="font-size:9px;font-style:normal;font-variant:normal;font-weight:bold;font-stretch:normal;line-height:125%;letter-spacing:0px;word-spacing:0px;fill:#000000;fill-opacity:0.67058824;stroke:none;font-family:KacstOne;-inkscape-font-specification:KacstOne Bold"
     id="text3898">
    <path
       d="m 90.807411,116.60858 4.565918,0 0,1.27881 -2.874023,0 0,1.22168 2.702636,0 0,1.27881 -2.702636,0 0,2.78174 -1.691895,0 0,-6.56104"
       style=""
       id="path3913" />
    <path
       d="m 98.568153,120.95477 c -0.328127,1e-5 -0.575686,0.0557 -0.742675,0.167 -0.164065,0.11133 -0.246096,0.27539 -0.246094,0.49218 -2e-6,0.19922 0.06592,0.35596 0.197754,0.47022 0.134763,0.11133 0.320798,0.16699 0.558105,0.16699 0.295896,0 0.544919,-0.10547 0.747071,-0.31641 0.202144,-0.21386 0.303218,-0.48046 0.303222,-0.7998 l 0,-0.18018 -0.817383,0 m 2.403807,-0.59326 0,2.80811 -1.586424,0 0,-0.7295 c -0.210941,0.29883 -0.448245,0.51709 -0.711914,0.65479 -0.263675,0.13477 -0.584475,0.20215 -0.962402,0.20215 -0.509767,0 -0.924318,-0.14795 -1.243653,-0.44385 -0.316406,-0.29883 -0.474609,-0.68555 -0.474609,-1.16016 0,-0.57714 0.197753,-1.00048 0.593262,-1.27002 0.398436,-0.26952 1.022459,-0.40429 1.87207,-0.40429 l 0.927246,0 0,-0.12305 c -4e-6,-0.24902 -0.09815,-0.43066 -0.294433,-0.54492 -0.196293,-0.11718 -0.502445,-0.17578 -0.918457,-0.17578 -0.336917,0 -0.650393,0.0337 -0.94043,0.10107 -0.290041,0.0674 -0.559571,0.16846 -0.808594,0.30322 l 0,-1.1997 c 0.336913,-0.082 0.675292,-0.14355 1.015137,-0.18457 0.339841,-0.0439 0.679685,-0.0659 1.019531,-0.0659 0.887692,0 1.527828,0.17579 1.92041,0.52734 0.3955,0.34864 0.59326,0.917 0.59326,1.70508"
       style=""
       id="path3915" />
    <path
       d="m 106.42118,118.40155 0,1.2832 c -0.21387,-0.14648 -0.4292,-0.25488 -0.646,-0.32519 -0.21387,-0.0703 -0.43652,-0.10547 -0.66796,-0.10547 -0.43946,0 -0.78223,0.12891 -1.02832,0.38672 -0.24317,0.25488 -0.36475,0.61231 -0.36475,1.07226 0,0.45997 0.12158,0.81885 0.36475,1.07666 0.24609,0.25489 0.58886,0.38233 1.02832,0.38233 0.24609,0 0.479,-0.0366 0.69873,-0.10987 0.22265,-0.0732 0.42773,-0.18163 0.61523,-0.32519 l 0,1.2876 c -0.2461,0.0908 -0.49659,0.1582 -0.75146,0.20215 -0.25196,0.0469 -0.50538,0.0703 -0.76026,0.0703 -0.8877,0 -1.58203,-0.22705 -2.08301,-0.68115 -0.50097,-0.45703 -0.75146,-1.09131 -0.75146,-1.90284 0,-0.81152 0.25049,-1.44433 0.75146,-1.89843 0.50098,-0.45703 1.19531,-0.68555 2.08301,-0.68555 0.25781,0 0.51123,0.0234 0.76026,0.0703 0.25194,0.044 0.50243,0.11133 0.75146,0.20215"
       style=""
       id="path3917" />
    <path
       d="m 112.70097,120.6955 0,0.44824 -3.67823,0 c 0.0381,0.36914 0.17139,0.646 0.39991,0.83056 0.22851,0.18458 0.54784,0.27686 0.958,0.27686 0.33105,0 0.66943,-0.0483 1.01514,-0.14502 0.34863,-0.0996 0.70605,-0.24902 1.07227,-0.44824 l 0,1.21289 c -0.37208,0.14062 -0.74415,0.24609 -1.11622,0.3164 -0.37207,0.0733 -0.74414,0.10987 -1.11621,0.10987 -0.89062,0 -1.58349,-0.22559 -2.07861,-0.67676 -0.49219,-0.4541 -0.73828,-1.08984 -0.73828,-1.90723 0,-0.80273 0.2417,-1.43407 0.7251,-1.89404 0.48632,-0.45996 1.15429,-0.68994 2.0039,-0.68994 0.77344,0 1.3916,0.23291 1.8545,0.69873 0.46581,0.46582 0.69872,1.08838 0.69873,1.86768 m -1.61719,-0.52295 c -1e-5,-0.29883 -0.0879,-0.53906 -0.26367,-0.72071 -0.17286,-0.18456 -0.39991,-0.27685 -0.68116,-0.27685 -0.30469,0 -0.55224,0.0864 -0.74267,0.25928 -0.19043,0.16992 -0.30909,0.41601 -0.35596,0.73828 l 2.04346,0"
       style=""
       id="path3919" />
    <path
       d="m 116.50663,122.15448 c 0.33691,0 0.59326,-0.12305 0.76904,-0.36914 0.17871,-0.24609 0.26806,-0.60351 0.26807,-1.07227 -1e-5,-0.46874 -0.0894,-0.82616 -0.26807,-1.07226 -0.17578,-0.24609 -0.43213,-0.36914 -0.76904,-0.36914 -0.33692,0 -0.59619,0.12451 -0.77783,0.37353 -0.17872,0.2461 -0.26807,0.60206 -0.26807,1.06787 0,0.46583 0.0893,0.82325 0.26807,1.07227 0.18164,0.24609 0.44091,0.36914 0.77783,0.36914 m -1.0459,-3.18604 c 0.2168,-0.2871 0.45703,-0.49804 0.7207,-0.63281 0.26367,-0.13769 0.5669,-0.20654 0.90967,-0.20654 0.60644,0 1.10449,0.2417 1.49414,0.7251 0.38965,0.48047 0.58447,1.1001 0.58448,1.85888 -1e-5,0.75879 -0.19483,1.37989 -0.58448,1.86328 -0.38965,0.48047 -0.8877,0.72071 -1.49414,0.72071 -0.34277,0 -0.646,-0.0674 -0.90967,-0.20215 -0.26367,-0.1377 -0.5039,-0.3501 -0.7207,-0.63721 l 0,0.71192 -1.57324,0 0,-6.83789 1.57324,0 0,2.63671"
       style=""
       id="path3921" />
    <path
       d="m 122.68095,119.25409 c -0.34864,0 -0.61524,0.12598 -0.79981,0.37793 -0.18164,0.24903 -0.27246,0.60938 -0.27246,1.08105 0,0.47169 0.0908,0.8335 0.27246,1.08545 0.18457,0.24903 0.45117,0.37354 0.79981,0.37354 0.34277,0 0.60497,-0.12451 0.78662,-0.37354 0.18163,-0.25195 0.27245,-0.61376 0.27246,-1.08545 -1e-5,-0.47167 -0.0908,-0.83202 -0.27246,-1.08105 -0.18165,-0.25195 -0.44385,-0.37793 -0.78662,-0.37793 m 0,-1.125 c 0.84667,0 1.50732,0.22852 1.98193,0.68555 0.47753,0.45703 0.7163,1.08984 0.71631,1.89843 -10e-6,0.8086 -0.23878,1.44141 -0.71631,1.89844 -0.47461,0.45703 -1.13526,0.68555 -1.98193,0.68555 -0.84962,0 -1.51465,-0.22852 -1.99512,-0.68555 -0.47754,-0.45703 -0.71631,-1.08984 -0.71631,-1.89844 0,-0.80859 0.23877,-1.4414 0.71631,-1.89843 0.48047,-0.45703 1.1455,-0.68555 1.99512,-0.68555"
       style=""
       id="path3923" />
    <path
       d="m 128.86845,119.25409 c -0.34864,0 -0.61524,0.12598 -0.79981,0.37793 -0.18164,0.24903 -0.27246,0.60938 -0.27246,1.08105 0,0.47169 0.0908,0.8335 0.27246,1.08545 0.18457,0.24903 0.45117,0.37354 0.79981,0.37354 0.34277,0 0.60497,-0.12451 0.78662,-0.37354 0.18163,-0.25195 0.27245,-0.61376 0.27246,-1.08545 -1e-5,-0.47167 -0.0908,-0.83202 -0.27246,-1.08105 -0.18165,-0.25195 -0.44385,-0.37793 -0.78662,-0.37793 m 0,-1.125 c 0.84667,0 1.50732,0.22852 1.98193,0.68555 0.47753,0.45703 0.7163,1.08984 0.71631,1.89843 -1e-5,0.8086 -0.23878,1.44141 -0.71631,1.89844 -0.47461,0.45703 -1.13526,0.68555 -1.98193,0.68555 -0.84962,0 -1.51465,-0.22852 -1.99512,-0.68555 -0.47754,-0.45703 -0.71631,-1.08984 -0.71631,-1.89844 0,-0.80859 0.23877,-1.4414 0.71631,-1.89843 0.48047,-0.45703 1.1455,-0.68555 1.99512,-0.68555"
       style=""
       id="path3925" />
    <path
       d="m 132.71366,116.33173 1.57324,0 0,3.72216 1.81055,-1.80615 1.82813,0 -2.40381,2.25879 2.59277,2.66309 -1.90723,0 -1.92041,-2.05225 0,2.05225 -1.57324,0 0,-6.83789"
       style=""
       id="path3927" />
  </g>
</svg>
